<svg width="16" height="16" viewBox="0 0 16 16" fill="none" xmlns="http://www.w3.org/2000/svg">
<path fill-rule="evenodd" clip-rule="evenodd" d="M3.53657 4.02851C3.79692 3.76816 4.21903 3.76816 4.47938 4.02851L8.00798 7.55711L11.5366 4.02851C11.7969 3.76816 12.219 3.76816 12.4794 4.02851C12.7397 4.28886 12.7397 4.71097 12.4794 4.97132L8.95078 8.49992L12.4794 12.0285C12.7397 12.2889 12.7397 12.711 12.4794 12.9713C12.219 13.2317 11.7969 13.2317 11.5366 12.9713L8.00798 9.44273L4.47938 12.9713C4.21903 13.2317 3.79692 13.2317 3.53657 12.9713C3.27622 12.711 3.27622 12.2889 3.53657 12.0285L7.06517 8.49992L3.53657 4.97132C3.27622 4.71097 3.27622 4.28886 3.53657 4.02851Z" fill="#909090"/>
</svg>
