<svg viewBox="0 0 18 18" fill="none" xmlns="http://www.w3.org/2000/svg">
<path d="M9.20081 17.5129C6.83414 17.5129 4.82581 16.6879 3.17581 15.0379C1.52581 13.3879 0.700806 11.3796 0.700806 9.01291C0.700806 6.74625 1.46747 4.80458 3.00081 3.18791C4.53414 1.57125 6.41747 0.696245 8.65081 0.562912C8.78414 0.562912 8.9218 0.566912 9.0638 0.574912C9.20514 0.583579 9.34247 0.596245 9.47581 0.612912C8.95914 1.09625 8.55081 1.67525 8.25081 2.34991C7.95081 3.02525 7.80081 3.74625 7.80081 4.51291C7.80081 6.14625 8.37581 7.53791 9.52581 8.68791C10.6758 9.83791 12.0675 10.4129 13.7008 10.4129C14.4841 10.4129 15.2091 10.2629 15.8758 9.96291C16.5425 9.66291 17.1091 9.25458 17.5758 8.73791C17.6091 8.87125 17.6301 9.00858 17.6388 9.14991C17.6468 9.29191 17.6508 9.42958 17.6508 9.56291C17.5175 11.7962 16.6425 13.6796 15.0258 15.2129C13.4091 16.7462 11.4675 17.5129 9.20081 17.5129ZM9.20081 16.0129C10.6675 16.0129 11.9841 15.6089 13.1508 14.8009C14.3175 13.9922 15.1675 12.9379 15.7008 11.6379C15.3675 11.7212 15.0341 11.7879 14.7008 11.8379C14.3675 11.8879 14.0341 11.9129 13.7008 11.9129C11.6508 11.9129 9.90514 11.1922 8.46381 9.75091C7.02181 8.30891 6.30081 6.56291 6.30081 4.51291C6.30081 4.17958 6.32581 3.84625 6.37581 3.51291C6.42581 3.17958 6.49247 2.84625 6.57581 2.51291C5.27581 3.04625 4.22181 3.89625 3.41381 5.06291C2.60514 6.22958 2.20081 7.54625 2.20081 9.01291C2.20081 10.9462 2.88414 12.5962 4.25081 13.9629C5.61747 15.3296 7.26747 16.0129 9.20081 16.0129Z" />
</svg>
