<svg width="25" height="25" viewBox="0 0 25 25" fill="none" xmlns="http://www.w3.org/2000/svg">
<path fill-rule="evenodd" clip-rule="evenodd" d="M3.00781 5.5C3.00781 3.29086 4.79867 1.5 7.00781 1.5H15.351C16.4118 1.5 17.4292 1.92143 18.1794 2.67157L19.8362 4.32843C20.5864 5.07857 21.0078 6.09599 21.0078 7.15685V19.5C21.0078 21.7091 19.217 23.5 17.0078 23.5H7.00781C4.79867 23.5 3.00781 21.7091 3.00781 19.5V5.5ZM19.0078 8.5V19.5C19.0078 20.6046 18.1124 21.5 17.0078 21.5H7.00781C5.90324 21.5 5.00781 20.6046 5.00781 19.5V5.5C5.00781 4.39543 5.90324 3.5 7.00781 3.5H14.0078V5.5C14.0078 7.15685 15.351 8.5 17.0078 8.5H19.0078ZM18.8969 6.5C18.7987 6.2176 18.6375 5.95808 18.422 5.74264L16.7652 4.08579C16.5497 3.87035 16.2902 3.70914 16.0078 3.61094V5.5C16.0078 6.05228 16.4555 6.5 17.0078 6.5H18.8969Z" fill="#D5D5D5"/>
<path d="M11.625 9.57588C11.5071 9.62468 11.3966 9.69702 11.3007 9.79289L8.30071 12.7929C7.91018 13.1834 7.91018 13.8166 8.30071 14.2071C8.69123 14.5976 9.3244 14.5976 9.71492 14.2071L11.0078 12.9142V17.5C11.0078 18.0523 11.4555 18.5 12.0078 18.5C12.5601 18.5 13.0078 18.0523 13.0078 17.5V12.9142L14.3007 14.2071C14.6912 14.5976 15.3244 14.5976 15.7149 14.2071C16.1054 13.8166 16.1054 13.1834 15.7149 12.7929L12.7149 9.79289C12.4203 9.49825 11.9875 9.42591 11.625 9.57588Z" fill="#D5D5D5"/>
</svg>
