<svg viewBox="0 0 22 22" fill="none" xmlns="http://www.w3.org/2000/svg">
<path d="M11.1758 14.0129C12.0091 14.0129 12.7174 13.7212 13.3008 13.1379C13.8841 12.5546 14.1758 11.8462 14.1758 11.0129C14.1758 10.1796 13.8841 9.47124 13.3008 8.88791C12.7174 8.30458 12.0091 8.01291 11.1758 8.01291C10.3424 8.01291 9.63411 8.30458 9.05078 8.88791C8.46745 9.47124 8.17578 10.1796 8.17578 11.0129C8.17578 11.8462 8.46745 12.5546 9.05078 13.1379C9.63411 13.7212 10.3424 14.0129 11.1758 14.0129ZM11.1758 15.5129C9.92578 15.5129 8.86312 15.0756 7.98778 14.2009C7.11311 13.3256 6.67578 12.2629 6.67578 11.0129C6.67578 9.76291 7.11311 8.70024 7.98778 7.82491C8.86312 6.95024 9.92578 6.51291 11.1758 6.51291C12.4258 6.51291 13.4884 6.95024 14.3638 7.82491C15.2384 8.70024 15.6758 9.76291 15.6758 11.0129C15.6758 12.2629 15.2384 13.3256 14.3638 14.2009C13.4884 15.0756 12.4258 15.5129 11.1758 15.5129ZM1.17578 11.7629C0.959115 11.7629 0.779781 11.6919 0.637781 11.5499C0.496448 11.4086 0.425781 11.2296 0.425781 11.0129C0.425781 10.7962 0.496448 10.6169 0.637781 10.4749C0.779781 10.3336 0.959115 10.2629 1.17578 10.2629H3.42578C3.64245 10.2629 3.82145 10.3336 3.96278 10.4749C4.10478 10.6169 4.17578 10.7962 4.17578 11.0129C4.17578 11.2296 4.10478 11.4086 3.96278 11.5499C3.82145 11.6919 3.64245 11.7629 3.42578 11.7629H1.17578ZM18.9258 11.7629C18.7091 11.7629 18.5298 11.6919 18.3878 11.5499C18.2464 11.4086 18.1758 11.2296 18.1758 11.0129C18.1758 10.7962 18.2464 10.6169 18.3878 10.4749C18.5298 10.3336 18.7091 10.2629 18.9258 10.2629H21.1758C21.3924 10.2629 21.5718 10.3336 21.7138 10.4749C21.8551 10.6169 21.9258 10.7962 21.9258 11.0129C21.9258 11.2296 21.8551 11.4086 21.7138 11.5499C21.5718 11.6919 21.3924 11.7629 21.1758 11.7629H18.9258ZM11.1758 4.01291C10.9591 4.01291 10.7801 3.94191 10.6388 3.79991C10.4968 3.65858 10.4258 3.47958 10.4258 3.26291V1.01291C10.4258 0.796242 10.4968 0.616909 10.6388 0.474909C10.7801 0.333576 10.9591 0.262909 11.1758 0.262909C11.3924 0.262909 11.5718 0.333576 11.7138 0.474909C11.8551 0.616909 11.9258 0.796242 11.9258 1.01291V3.26291C11.9258 3.47958 11.8551 3.65858 11.7138 3.79991C11.5718 3.94191 11.3924 4.01291 11.1758 4.01291ZM11.1758 21.7629C10.9591 21.7629 10.7801 21.6922 10.6388 21.5509C10.4968 21.4089 10.4258 21.2296 10.4258 21.0129V18.7629C10.4258 18.5462 10.4968 18.3669 10.6388 18.2249C10.7801 18.0836 10.9591 18.0129 11.1758 18.0129C11.3924 18.0129 11.5718 18.0836 11.7138 18.2249C11.8551 18.3669 11.9258 18.5462 11.9258 18.7629V21.0129C11.9258 21.2296 11.8551 21.4089 11.7138 21.5509C11.5718 21.6922 11.3924 21.7629 11.1758 21.7629ZM5.17578 6.06291L3.92578 4.83791C3.77578 4.68791 3.70478 4.50858 3.71278 4.29991C3.72145 4.09191 3.79245 3.91291 3.92578 3.76291C4.07578 3.61291 4.25511 3.53791 4.46378 3.53791C4.67178 3.53791 4.85078 3.61291 5.00078 3.76291L6.22578 5.01291C6.37578 5.16291 6.45078 5.33791 6.45078 5.53791C6.45078 5.73791 6.37578 5.91291 6.22578 6.06291C6.09245 6.21291 5.92578 6.28358 5.72578 6.27491C5.52578 6.26691 5.34245 6.19624 5.17578 6.06291ZM17.3508 18.2629L16.1258 17.0129C15.9758 16.8629 15.9008 16.6879 15.9008 16.4879C15.9008 16.2879 15.9758 16.1129 16.1258 15.9629C16.2591 15.8129 16.4258 15.7422 16.6258 15.7509C16.8258 15.7589 17.0091 15.8296 17.1758 15.9629L18.4258 17.1879C18.5758 17.3379 18.6468 17.5169 18.6388 17.7249C18.6301 17.9336 18.5591 18.1129 18.4258 18.2629C18.2758 18.4129 18.0968 18.4879 17.8888 18.4879C17.6801 18.4879 17.5008 18.4129 17.3508 18.2629ZM16.1258 6.06291C15.9758 5.92958 15.9051 5.76291 15.9138 5.56291C15.9218 5.36291 15.9924 5.17958 16.1258 5.01291L17.3508 3.76291C17.5008 3.61291 17.6801 3.54191 17.8888 3.54991C18.0968 3.55858 18.2758 3.62958 18.4258 3.76291C18.5758 3.91291 18.6508 4.09191 18.6508 4.29991C18.6508 4.50858 18.5758 4.68791 18.4258 4.83791L17.1758 6.06291C17.0258 6.21291 16.8508 6.28791 16.6508 6.28791C16.4508 6.28791 16.2758 6.21291 16.1258 6.06291ZM3.92578 18.2629C3.77578 18.1129 3.70078 17.9336 3.70078 17.7249C3.70078 17.5169 3.77578 17.3379 3.92578 17.1879L5.17578 15.9629C5.32578 15.8129 5.50078 15.7379 5.70078 15.7379C5.90078 15.7379 6.07578 15.8129 6.22578 15.9629C6.37578 16.0962 6.44678 16.2629 6.43878 16.4629C6.43011 16.6629 6.35911 16.8462 6.22578 17.0129L5.00078 18.2629C4.85078 18.4129 4.67178 18.4879 4.46378 18.4879C4.25511 18.4879 4.07578 18.4129 3.92578 18.2629Z" />
</svg>
