<svg viewBox="0 0 494 69" fill="none" xmlns="http://www.w3.org/2000/svg">
<path d="M94.9363 67.3158H109.777V47.6103H123.546C135.667 47.6103 143.499 39.6126 143.499 28.317C143.499 22.3806 141.356 17.3512 137.563 13.8058C133.935 10.3429 128.658 8.36411 121.485 8.36411H94.9363V67.3158ZM109.777 36.0673V20.6491H120.578C125.773 20.6491 128.823 23.5349 128.823 28.2345C128.823 32.9342 125.855 36.0673 120.578 36.0673H109.777Z" />
<path d="M162.624 67.3158H177.217V45.549L197.17 8.36411H181.752L174.249 23.6173C172.27 27.6574 170.209 32.6044 170.209 32.6044H170.044C170.044 32.6044 168.148 27.6574 166.169 23.6173L158.584 8.36411H142.671L162.624 45.549V67.3158Z" />
<path d="M222.619 68.635C230.946 68.635 236.965 66.3264 241.5 61.9566C245.54 58.0814 248.179 52.7222 248.591 46.8682H233.997C233.338 52.5573 229.05 56.6798 222.537 56.6798C213.797 56.6798 208.355 48.847 208.355 38.0461C208.355 27.3276 212.89 19.33 222.454 19.33C228.72 19.33 232.843 23.37 233.585 28.6468H248.179C247.436 22.0508 244.468 16.2793 239.356 12.4042C235.151 9.18861 229.38 7.20981 222.537 7.20981C204.975 7.20981 193.514 20.4843 193.514 38.0461C193.514 55.6904 205.305 68.635 222.619 68.635Z" />
<path d="M280.594 56.8447C271.112 56.8447 266.247 48.6821 266.247 37.9636C266.247 27.2451 271.112 19.0002 280.594 19.0002C290.158 19.0002 294.857 27.2451 294.857 37.9636C294.857 48.6821 290.158 56.8447 280.594 56.8447ZM280.511 68.7175C298.403 68.7175 309.698 55.6079 309.698 37.9636C309.698 20.3194 298.403 7.20981 280.511 7.20981C262.702 7.20981 251.406 20.3194 251.406 37.9636C251.406 55.6079 262.702 68.7175 280.511 68.7175Z" />
<path d="M315.393 67.3158H329.657V39.86C329.657 37.7987 329.492 30.2133 329.492 30.2133H329.657C329.657 30.2133 332.873 36.562 333.862 38.1285L351.177 67.3158H365.853V8.36411H351.589V36.3146C351.589 38.3759 351.754 45.4666 351.754 45.4666H351.589C351.589 45.4666 348.456 39.6126 347.549 37.9636L330.069 8.36411H315.393V67.3158Z" />
<path d="M386.732 67.3158H401.325V47.0331L406.272 41.8388L423.257 67.3158H440.242L416.331 32.0272L438.923 8.36411H421.608L401.325 29.7186V8.36411H386.732V67.3158Z" />
<path d="M444.221 67.3158H458.815V45.2192H467.637C473.903 45.2192 476.707 48.1874 477.449 53.6291C478.356 59.4831 478.108 66.4089 479.675 67.3158H493.856V66.5738C491.795 65.8317 492.619 58.4112 491.383 50.6609C490.558 44.807 487.92 41.5914 482.808 39.86V39.6126C489.651 37.2216 493.032 32.1921 493.032 25.3488C493.032 14.383 484.127 8.36411 472.419 8.36411H444.221V67.3158ZM458.815 34.4183V19.9071H470.111C475.717 19.9071 478.52 22.9577 478.52 27.2451C478.52 31.6974 475.552 34.4183 469.781 34.4183H458.815Z" />
<path fill-rule="evenodd" clip-rule="evenodd" d="M0.143799 0.15799H25.5727L32.0846 8.3751H78.4464V67.2961H0.143799V8.37519V8.3751V0.15799ZM37.7288 22.2632C37.7288 22.2632 37.0851 17.8211 47.3925 17.8211C58.1641 17.8211 57.3319 23.1767 57.3319 23.1767V32.0266C57.3319 37.3789 51.8509 37.2909 51.8509 37.2909H42.0953C36.2452 37.2909 36.4303 43.0119 36.4303 43.0119V47.808H32.9946C32.9946 47.808 27.2378 48.1745 27.2378 37.839C27.2378 27.5035 33.8335 28.2468 33.8335 28.2468H47.5763V26.8651H37.7403L37.7288 22.2632ZM43.7384 22.6742C43.7384 21.7017 42.9475 20.9157 41.9689 20.9157C40.9902 20.9157 40.1993 21.7017 40.1993 22.6742C40.1993 23.6468 40.9902 24.4328 41.9689 24.4328C42.9475 24.4328 43.7384 23.6468 43.7384 22.6742ZM47.684 57.9605C57.9914 57.9605 57.3477 53.5184 57.3477 53.5184L57.3362 48.9164H47.5002V47.5347H61.2431C61.2431 47.5347 67.8387 48.2781 67.8387 37.9426C67.8387 27.6071 62.0819 27.9736 62.0819 27.9736H58.6462V32.7696C58.6462 32.7696 58.8314 38.4907 52.9813 38.4907H43.2257C43.2257 38.4907 37.7446 38.4026 37.7446 43.755V52.6049C37.7446 52.6049 36.9124 57.9605 47.684 57.9605ZM53.1076 54.8659C52.129 54.8659 51.3381 54.0798 51.3381 53.1073C51.3381 52.1348 52.129 51.3487 53.1076 51.3487C54.0863 51.3487 54.8772 52.1348 54.8772 53.1073C54.8772 54.0798 54.0863 54.8659 53.1076 54.8659ZM15.7587 56.9809H24.2376V18.801H12.5358V26.7345H15.7587V56.9809Z" fill="#1c1c1c" />
</svg>
