<svg width="115" height="24" viewBox="0 0 115 24" fill="none" xmlns="http://www.w3.org/2000/svg">
<g clip-path="url(#clip0_4915_3325)">
<path d="M57.4203 8.09856C57.4712 5.02135 54.78 0.0704609 49.0299 0.0594067C48.5084 0.0584855 48.1025 0.0584855 47.8124 0.0594067C45.9902 0.0649338 35.421 0.0594067 30.6763 0.0594067C29.9739 0.0594067 29.1241 0.165803 29.1241 1.0377C29.1241 2.61845 29.1186 3.5166 29.1186 5.11808C29.1186 5.50912 29.4326 5.76889 29.7976 5.77994H44.0386C44.2122 5.77994 44.3527 5.92088 44.3527 6.09499V6.38654C44.3527 6.56065 44.2122 6.70159 44.0386 6.70159H32.7656C32.1279 6.71126 31.4889 6.7154 30.8457 6.70988C29.6544 6.69744 29.1255 6.63388 29.1255 8.10961C29.1255 9.15423 29.1131 14.2709 29.1255 15.6679C29.1599 19.3144 31.1088 22.0254 34.4445 23.2967C37.6205 24.5071 46.7326 24.5182 46.4503 15.8807C46.4544 15.7784 46.5384 15.6983 46.6389 15.6983C46.7395 15.6983 46.7973 15.6983 46.8896 15.7011C46.9998 15.7024 47.0893 15.7936 47.0893 15.9042C47.0989 18.6069 47.0893 18.7327 47.1182 22.7882C47.1265 23.8853 47.5906 23.9779 48.8784 23.9779C51.6715 23.9779 52.626 24 56.0747 24C57.1393 24 57.4795 23.7402 57.4712 22.8352C57.4423 19.7041 57.4203 8.09856 57.4203 8.09856Z" fill="#1C1C1C"/>
<path d="M114.094 20.3577C114.08 16.8908 111.948 11.0763 102.439 11.0763C102.43 11.0763 102.421 11.0763 102.413 11.0763H98.8102C98.6381 11.0763 98.4976 10.9367 98.4976 10.7626V10.5678C98.4907 10.5678 98.4824 10.5678 98.4756 10.5678C98.4824 10.5637 98.4907 10.5609 98.4976 10.5568V10.4586C98.4976 10.2901 98.6339 10.1533 98.802 10.1533H100.913C101.044 10.1519 101.178 10.1491 101.318 10.1491C103.281 10.1353 105.614 10.1339 108.422 10.1533H111.28C111.785 10.1524 112.297 10.1514 112.817 10.1505C113.78 10.1505 114.102 9.51904 114.102 8.93593C114.102 8.79637 114.102 8.6734 114.102 8.56424C114.101 8.51726 114.102 2.61432 114.102 0.663262C114.102 0.320583 113.825 0.0442285 113.485 0.0442285L106.895 0.0442285C101.945 0.0442285 96.3201 2.04227 96.0295 8.0212C96.024 8.13312 95.9304 8.22017 95.8188 8.21327C95.7169 8.20774 95.637 8.12345 95.6342 8.0212C95.5475 4.63862 95.5392 4.60684 95.5323 2.82159C95.5213 0.194842 95.2734 0.0428467 92.9665 0.0428467C91.3477 0.0428467 89.3855 0.044689 87.08 0.0483738C85.7178 0.0483738 85.2482 0.156152 85.2565 1.30855C85.2936 6.73062 85.2909 17.3122 85.262 22.7357C85.2565 23.8646 85.6063 23.877 87.2687 23.8784C90.7298 23.8812 90.7311 23.8466 94.5131 23.8701C96.1893 23.8798 96.5143 23.9489 96.5143 22.4897C96.5143 20.026 96.5377 18.2187 96.5143 15.9719C96.5143 15.9678 96.5143 15.9761 96.5143 15.9719C96.5033 14.9743 97.4192 14.2654 98.4122 14.235C98.6849 14.2267 99.0554 14.206 99.4204 14.2198C100.599 14.2668 101.568 15.4054 101.57 16.8949C101.573 19.2218 101.574 21.6358 101.574 22.2866C101.574 22.563 101.579 22.6127 101.577 22.7274C101.58 22.8297 101.577 22.5657 101.58 23.0093C101.587 23.7596 102.063 23.8522 103.183 23.8535C107.739 23.8618 108.13 23.8618 112.445 23.8466C113.729 23.8425 114.104 23.6629 114.104 22.7357C114.104 20.3577 114.104 22.5091 114.094 20.3577Z" fill="#1C1C1C"/>
<path d="M25.5033 11.9233H19.8509C19.7311 11.9233 19.6347 11.8266 19.6347 11.7064V11.2601C19.6347 11.1413 19.7311 11.0445 19.8495 11.0445H20.1388H20.5478C20.563 11.0445 20.6442 11.0445 20.6594 11.0445H25.6493C26.4894 11.0445 27.251 10.5955 27.251 9.3795V7.0526C27.251 3.22647 26.2635 1.84332 24.6342 0.837386C23.1743 -0.0635296 18.7339 0.0801747 15.8651 0.0760293C13.6862 0.071884 11.9082 0.0760291 11.7842 3.11731C11.7539 3.84412 11.7787 3.10902 11.7512 3.50559L11.2966 3.49868C11.276 2.519 11.2663 2.60882 11.2553 1.3141C11.2498 0.679864 11.2925 0.0553028 10.3491 0.0553028C7.82591 0.0553028 3.03023 0.0622116 1.10066 0.0553028C0.67784 0.053921 0.109025 0.344093 0.109025 0.917529C0.109025 5.16371 0.103516 18.5282 0.103516 22.8076C0.103516 23.4957 0.604845 23.9171 1.23288 23.9144C1.79068 23.913 2.36087 23.9102 3.38006 23.9088L23.3065 23.9185C23.1784 23.9185 23.0187 23.9199 23.323 23.9185C23.4759 23.9185 23.4153 23.9185 23.3258 23.9185C25.2857 23.9075 27.2483 22.2687 27.2497 20.6865C27.2497 19.1348 27.2524 17.0525 27.2524 15.7578C27.2524 15.7536 27.2524 15.7481 27.2524 15.7439V14.242C27.2524 13.435 27.0073 11.9289 25.5033 11.9261V11.9233Z" fill="#1C1C1C"/>
<path d="M83.3145 17.9603C83.3145 17.2694 83.3186 14.4699 83.3186 13.8094C83.3186 12.4539 83.1782 11.9689 82.0199 11.9468H76.6912C75.1597 11.9537 73.6281 11.962 72.0966 11.962C72.0461 11.962 71.6958 11.962 71.0457 11.962C70.8378 11.962 70.6683 11.7782 70.6683 11.5696V11.4176C70.6683 11.1992 70.8446 11.0224 71.0623 11.0224H74.7616C76.9864 11.0371 79.3943 11.0413 81.9854 11.0348C82.911 11.0321 83.3255 11.0735 83.3118 10.1602C83.2939 9.01052 83.3118 2.54935 83.3118 1.39281C83.3118 0.377209 82.933 -0.0110694 81.8835 -1.52431e-05C77.3013 0.0538739 72.7177 0.0124207 68.1342 0.0372926C65.6372 0.0511103 63.5175 0.972752 61.7643 2.7884C61.1142 3.46132 59.3375 5.3737 59.3499 9.39189C59.3595 12.4207 59.2879 10.1173 59.3981 22.8559C59.4449 23.7416 60.1157 23.8853 60.4338 23.8853C62.844 23.8853 77.5258 23.859 81.7623 23.924C82.9785 23.942 83.3421 23.2151 83.3324 22.288C83.3062 19.9224 83.3173 20.9421 83.3131 17.9589L83.3145 17.9603ZM73.0359 3.96705C73.9752 3.96705 74.7368 4.73117 74.7368 5.67354C74.7368 6.61591 73.9752 7.38003 73.0359 7.38003C72.0966 7.38003 71.335 6.61591 71.335 5.67354C71.335 4.73117 72.0966 3.96705 73.0359 3.96705ZM59.4477 23.0189C59.4477 23.0369 59.4477 23.0701 59.4477 23.0189V23.0189Z" fill="#1C1C1C"/>
</g>
<defs>
<clipPath id="clip0_4915_3325">
<rect width="114" height="24" fill="white" transform="translate(0.103516)"/>
</clipPath>
</defs>
</svg>
