<svg width="231" height="32" viewBox="0 0 231 32" fill="none" xmlns="http://www.w3.org/2000/svg">
<path d="M44.2442 31.3458H51.1712V22.1483H57.5979C63.255 22.1483 66.9109 18.4154 66.9109 13.1432C66.9109 10.3724 65.9103 8.0249 64.1401 6.37011C62.4468 4.75381 59.9839 3.83021 56.6358 3.83021H44.2442V31.3458ZM51.1712 16.7606V9.56423H56.2125C58.637 9.56423 60.0609 10.9111 60.0609 13.1047C60.0609 15.2982 58.6755 16.7606 56.2125 16.7606H51.1712Z" fill="#1C1C1C"/>
<path d="M75.8372 31.3458H82.6488V21.1862L91.9618 3.83021H84.7654L81.2634 10.9496C80.3398 12.8353 79.3777 15.1443 79.3777 15.1443H79.3007C79.3007 15.1443 78.4156 12.8353 77.492 10.9496L73.9515 3.83021H66.5243L75.8372 21.1862V31.3458Z" fill="#1C1C1C"/>
<path d="M103.84 31.9615C107.727 31.9615 110.536 30.884 112.653 28.8444C114.538 27.0357 115.77 24.5343 115.962 21.8019H109.151C108.843 24.4573 106.842 26.3815 103.801 26.3815C99.7222 26.3815 97.1823 22.7255 97.1823 17.6842C97.1823 12.6814 99.2988 8.9485 103.763 8.9485C106.688 8.9485 108.612 10.8342 108.958 13.2971H115.77C115.423 10.2184 114.038 7.52461 111.652 5.71589C109.689 4.21504 106.996 3.29144 103.801 3.29144C95.6044 3.29144 90.2553 9.48726 90.2553 17.6842C90.2553 25.9197 95.7584 31.9615 103.84 31.9615Z" fill="#1C1C1C"/>
<path d="M130.899 26.4584C126.474 26.4584 124.203 22.6486 124.203 17.6457C124.203 12.6429 126.474 8.79456 130.899 8.79456C135.363 8.79456 137.557 12.6429 137.557 17.6457C137.557 22.6486 135.363 26.4584 130.899 26.4584ZM130.861 32C139.212 32 144.484 25.8812 144.484 17.6457C144.484 9.4103 139.212 3.29144 130.861 3.29144C122.548 3.29144 117.276 9.4103 117.276 17.6457C117.276 25.8812 122.548 32 130.861 32Z" fill="#1C1C1C"/>
<path d="M147.142 31.3458H153.8V18.5308C153.8 17.5688 153.723 14.0283 153.723 14.0283H153.8C153.8 14.0283 155.301 16.9915 155.762 17.7227L163.844 31.3458H170.694V3.83021H164.036V16.8761C164.036 17.8381 164.113 21.1477 164.113 21.1477H164.036C164.036 21.1477 162.574 18.4154 162.151 17.6457L153.992 3.83021H147.142V31.3458Z" fill="#1C1C1C"/>
<path d="M180.439 31.3458H187.251V21.8789L189.56 19.4544L197.487 31.3458H205.415L194.255 14.8749L204.799 3.83021H196.718L187.251 13.7974V3.83021H180.439V31.3458Z" fill="#1C1C1C"/>
<path d="M207.272 31.3458H214.084V21.0323H218.202C221.126 21.0323 222.435 22.4177 222.781 24.9576C223.204 27.6899 223.089 30.9225 223.82 31.3458H230.439V30.9995C229.477 30.6531 229.862 27.1896 229.285 23.5722C228.9 20.8399 227.668 19.339 225.283 18.5308V18.4154C228.477 17.2994 230.054 14.9519 230.054 11.7578C230.054 6.63949 225.898 3.83021 220.434 3.83021H207.272V31.3458ZM214.084 15.9909V9.21788H219.356C221.973 9.21788 223.281 10.6418 223.281 12.6429C223.281 14.721 221.896 15.9909 219.202 15.9909H214.084Z" fill="#1C1C1C"/>
<path d="M0 0H11.8689L14.9083 3.83536H0V0Z" fill="#1C1C1C"/>
<path fill-rule="evenodd" clip-rule="evenodd" d="M0 3.83533H36.5476V31.3366H0V3.83533ZM18.2006 7.56696C13.0244 7.56696 13.3476 9.79772 13.3476 9.79772L13.3534 12.1088H18.2929V12.8026H11.3914C11.3914 12.8026 8.07915 12.4293 8.07915 17.6197C8.07915 22.81 10.9702 22.626 10.9702 22.626H12.6955V20.2175C12.6955 20.2175 12.6025 17.3444 15.5404 17.3444H20.4395C20.4395 17.3444 23.192 17.3886 23.192 14.7008V10.2565C23.192 10.2565 23.6099 7.56696 18.2006 7.56696ZM15.4769 9.12104C15.9683 9.12104 16.3655 9.51577 16.3655 10.0042C16.3655 10.4926 15.9683 10.8873 15.4769 10.8873C14.9854 10.8873 14.5882 10.4926 14.5882 10.0042C14.5882 9.51577 14.9854 9.12104 15.4769 9.12104ZM23.2 25.4937C23.2 25.4937 23.5233 27.7244 18.3471 27.7244C12.9377 27.7244 13.3556 25.0349 13.3556 25.0349V20.5906C13.3556 17.9028 16.1081 17.947 16.1081 17.947H21.0072C23.9451 17.947 23.8521 15.074 23.8521 15.074V12.6654H25.5775C25.5775 12.6654 28.4685 12.4814 28.4685 17.6717C28.4685 22.8621 25.1562 22.4888 25.1562 22.4888H18.2547V23.1827H23.1943L23.2 25.4937ZM20.1821 25.2873C20.1821 25.7756 20.5793 26.1704 21.0707 26.1704C21.5622 26.1704 21.9594 25.7756 21.9594 25.2873C21.9594 24.7989 21.5622 24.4041 21.0707 24.4041C20.5793 24.4041 20.1821 24.7989 20.1821 25.2873Z" fill="#1C1C1C"/>
</svg>
