<svg width="634" height="545" viewBox="0 0 634 545" fill="none" xmlns="http://www.w3.org/2000/svg">
<path d="M0 0.788086H205.893L258.618 67.3211H0V0.788086Z" fill="#1C1C1C"/>
<path fill-rule="evenodd" clip-rule="evenodd" d="M0 67.3208H634V544.392H0V67.3208ZM315.73 132.055C225.937 132.055 231.544 170.752 231.544 170.752L231.644 210.842H317.331V222.879H197.61C197.61 222.879 140.151 216.404 140.151 306.442C140.151 396.48 190.302 393.287 190.302 393.287H220.233V351.506C220.233 351.506 218.619 301.667 269.583 301.667H354.569C354.569 301.667 402.318 302.434 402.318 255.807V178.711C402.318 178.711 409.568 132.055 315.73 132.055ZM268.482 159.014C277.007 159.014 283.897 165.861 283.897 174.333C283.897 182.806 277.007 189.653 268.482 189.653C259.957 189.653 253.066 182.806 253.066 174.333C253.066 165.861 259.957 159.014 268.482 159.014ZM402.456 443.034C402.456 443.034 408.063 481.732 318.27 481.732C224.433 481.732 231.682 435.076 231.682 435.076V357.98C231.682 311.353 279.431 312.12 279.431 312.12H364.417C415.381 312.12 413.768 262.28 413.768 262.28V220.499H443.698C443.698 220.499 493.849 217.306 493.849 307.345C493.849 397.383 436.391 390.907 436.391 390.907H316.669V402.944H402.356L402.456 443.034ZM350.103 439.453C350.103 447.925 356.993 454.773 365.518 454.773C374.044 454.773 380.934 447.925 380.934 439.453C380.934 430.981 374.044 424.133 365.518 424.133C356.993 424.133 350.103 430.981 350.103 439.453Z" fill="#1C1C1C"/>
</svg>
